<?xml version="1.0" standalone="no"?>
<!DOCTYPE svg PUBLIC "-//W3C//DTD SVG 20010904//EN"
 "http://www.w3.org/TR/2001/REC-SVG-20010904/DTD/svg10.dtd">
<svg version="1.0" xmlns="http://www.w3.org/2000/svg"
 width="700.000000pt" height="700.000000pt" viewBox="0 0 700.000000 700.000000"
 preserveAspectRatio="xMidYMid meet">
<metadata>
Created by potrace 1.11, written by Peter Selinger 2001-2013
</metadata>
<g transform="translate(0.000000,700.000000) scale(0.100000,-0.100000)"
fill="#000000" stroke="none">
<path d="M3269 6996 c-2 -2 -42 -7 -89 -10 -47 -3 -96 -8 -110 -10 -14 -2 -46
-7 -71 -10 -1022 -140 -1958 -762 -2498 -1661 -99 -164 -207 -384 -266 -540
-21 -55 -41 -109 -46 -120 -43 -104 -131 -466 -153 -625 -2 -19 -10 -80 -18
-135 -14 -112 -18 -606 -5 -720 77 -674 283 -1209 670 -1745 188 -258 515
-583 757 -750 19 -13 37 -27 40 -30 3 -3 43 -31 90 -61 306 -201 634 -351 978
-448 140 -40 343 -83 451 -96 30 -4 63 -9 75 -11 100 -19 583 -26 746 -11
1501 141 2747 1225 3088 2687 27 116 33 142 46 225 36 218 41 300 41 600 -1
333 -28 551 -105 850 -208 802 -692 1504 -1365 1982 -99 70 -260 173 -270 173
-3 0 -24 12 -46 26 -125 79 -414 205 -626 274 -123 40 -363 101 -453 115 -25
4 -54 9 -65 11 -11 3 -54 9 -95 14 -41 5 -93 12 -115 15 -48 7 -580 17 -586
11z"/>
</g>
</svg>
